<svg width="100" height="100" viewBox="0 0 100 100" fill="none" xmlns="http://www.w3.org/2000/svg">
<path fill-rule="evenodd" clip-rule="evenodd" d="M28 12C25.7909 12 24 13.7909 24 16V30H17C10.3726 30 5 35.3726 5 42V76C5 82.6274 10.3726 88 17 88H83C89.6274 88 95 82.6274 95 76V42C95 35.3726 89.6274 30 83 30H75V16C75 13.7909 73.2091 12 71 12C68.7909 12 67 13.7909 67 16V30H32V16C32 13.7909 30.2091 12 28 12ZM13 42C13 39.7909 14.7909 38 17 38H83C85.2091 38 87 39.7909 87 42V76C87 78.2091 85.2091 80 83 80H17C14.7909 80 13 78.2091 13 76V42ZM55.8875 55.5227L52.8807 62.6818H48.0227L53.4943 51.2273H58.5057L63.9773 62.6818H59.1193L56.1125 55.5227H55.8875ZM73.8875 55.5227L70.8807 62.6818H66.0227L71.4943 51.2273H76.5057L81.9773 62.6818H77.1193L74.1125 55.5227H73.8875Z" fill="black"/>
</svg>
